<svg width="10" height="14" viewBox="0 0 10 14" fill="none" xmlns="http://www.w3.org/2000/svg">
<path d="M4.89773 12.7804C4.21046 11.7841 3.62823 10.9547 3.13472 10.2517C2.25775 9.0025 1.66091 8.15232 1.25263 7.47344C0.939916 6.95347 0.756665 6.56316 0.648282 6.19718C0.541036 5.83503 0.5 5.47275 0.5 5C0.5 2.51471 2.51471 0.5 5 0.5C7.48529 0.5 9.5 2.51471 9.5 5C9.5 5.47275 9.45896 5.83503 9.35172 6.19718C9.24333 6.56316 9.06008 6.95347 8.74737 7.47344C8.33909 8.15232 7.74225 9.0025 6.86527 10.2517C6.37184 10.9546 5.78971 11.7838 5.10259 12.78C5.05304 12.8512 4.94667 12.8511 4.89726 12.7797L4.48615 13.0643L4.89773 12.7804ZM5 7.58333C6.42674 7.58333 7.58333 6.42674 7.58333 5C7.58333 3.57326 6.42674 2.41667 5 2.41667C3.57326 2.41667 2.41667 3.57326 2.41667 5C2.41667 6.42674 3.57326 7.58333 5 7.58333Z" stroke="white"/>
</svg>
