<svg width="48" height="29" viewBox="0 0 48 29" fill="none" xmlns="http://www.w3.org/2000/svg">
<path d="M0.5 2.5C0.5 1.39543 1.39543 0.5 2.5 0.5H45.5C46.6046 0.5 47.5 1.39543 47.5 2.5C47.5 3.60457 46.6046 4.5 45.5 4.5H2.5C1.39543 4.5 0.5 3.60457 0.5 2.5ZM0.5 14.5C0.5 13.3954 1.39543 12.5 2.5 12.5H45.5C46.6046 12.5 47.5 13.3954 47.5 14.5C47.5 15.6046 46.6046 16.5 45.5 16.5H2.5C1.39543 16.5 0.5 15.6046 0.5 14.5ZM0.5 26.5C0.5 25.3954 1.39543 24.5 2.5 24.5H45.5C46.6046 24.5 47.5 25.3954 47.5 26.5C47.5 27.6046 46.6046 28.5 45.5 28.5H2.5C1.39543 28.5 0.5 27.6046 0.5 26.5Z" stroke="#D34FFF"/>
</svg>
